<?xml version="1.0" encoding="utf-8"?>
<svg xmlns="http://www.w3.org/2000/svg" xmlns:xlink="http://www.w3.org/1999/xlink" width="600" height="400" viewBox="0 0 2400 1600">
<defs>
  <clipPath id="clip2000">
    <rect x="0" y="0" width="2000" height="2000"/>
  </clipPath>
</defs>
<defs>
  <clipPath id="clip2001">
    <rect x="0" y="0" width="2400" height="1600"/>
  </clipPath>
</defs>
<polygon clip-path="url(#clip2001)" points="
0,1600 2400,1600 2400,0 0,0 
  " fill="#ffffff" fill-rule="evenodd" fill-opacity="1"/>
<defs>
  <clipPath id="clip2002">
    <rect x="480" y="0" width="1681" height="1600"/>
  </clipPath>
</defs>
<polygon clip-path="url(#clip2001)" points="
184.243,1440.48 2321.26,1440.48 2321.26,125.984 184.243,125.984 
  " fill="#ffffff" fill-rule="evenodd" fill-opacity="1"/>
<defs>
  <clipPath id="clip2003">
    <rect x="184" y="125" width="2138" height="1315"/>
  </clipPath>
</defs>
<polyline clip-path="url(#clip2003)" style="stroke:#000000; stroke-width:2; stroke-opacity:0.1; fill:none" points="
  244.724,1440.48 244.724,125.984 
  "/>
<polyline clip-path="url(#clip2003)" style="stroke:#000000; stroke-width:2; stroke-opacity:0.1; fill:none" points="
  743.698,1440.48 743.698,125.984 
  "/>
<polyline clip-path="url(#clip2003)" style="stroke:#000000; stroke-width:2; stroke-opacity:0.1; fill:none" points="
  1242.67,1440.48 1242.67,125.984 
  "/>
<polyline clip-path="url(#clip2003)" style="stroke:#000000; stroke-width:2; stroke-opacity:0.1; fill:none" points="
  1741.64,1440.48 1741.64,125.984 
  "/>
<polyline clip-path="url(#clip2003)" style="stroke:#000000; stroke-width:2; stroke-opacity:0.1; fill:none" points="
  2240.62,1440.48 2240.62,125.984 
  "/>
<polyline clip-path="url(#clip2003)" style="stroke:#000000; stroke-width:2; stroke-opacity:0.1; fill:none" points="
  184.243,1428.53 2321.26,1428.53 
  "/>
<polyline clip-path="url(#clip2003)" style="stroke:#000000; stroke-width:2; stroke-opacity:0.1; fill:none" points="
  184.243,1160.01 2321.26,1160.01 
  "/>
<polyline clip-path="url(#clip2003)" style="stroke:#000000; stroke-width:2; stroke-opacity:0.1; fill:none" points="
  184.243,891.501 2321.26,891.501 
  "/>
<polyline clip-path="url(#clip2003)" style="stroke:#000000; stroke-width:2; stroke-opacity:0.1; fill:none" points="
  184.243,622.987 2321.26,622.987 
  "/>
<polyline clip-path="url(#clip2003)" style="stroke:#000000; stroke-width:2; stroke-opacity:0.1; fill:none" points="
  184.243,354.473 2321.26,354.473 
  "/>
<polyline clip-path="url(#clip2001)" style="stroke:#000000; stroke-width:4; stroke-opacity:1; fill:none" points="
  184.243,1440.48 2321.26,1440.48 
  "/>
<polyline clip-path="url(#clip2001)" style="stroke:#000000; stroke-width:4; stroke-opacity:1; fill:none" points="
  184.243,1440.48 184.243,125.984 
  "/>
<polyline clip-path="url(#clip2001)" style="stroke:#000000; stroke-width:4; stroke-opacity:1; fill:none" points="
  244.724,1440.48 244.724,1420.77 
  "/>
<polyline clip-path="url(#clip2001)" style="stroke:#000000; stroke-width:4; stroke-opacity:1; fill:none" points="
  743.698,1440.48 743.698,1420.77 
  "/>
<polyline clip-path="url(#clip2001)" style="stroke:#000000; stroke-width:4; stroke-opacity:1; fill:none" points="
  1242.67,1440.48 1242.67,1420.77 
  "/>
<polyline clip-path="url(#clip2001)" style="stroke:#000000; stroke-width:4; stroke-opacity:1; fill:none" points="
  1741.64,1440.48 1741.64,1420.77 
  "/>
<polyline clip-path="url(#clip2001)" style="stroke:#000000; stroke-width:4; stroke-opacity:1; fill:none" points="
  2240.62,1440.48 2240.62,1420.77 
  "/>
<polyline clip-path="url(#clip2001)" style="stroke:#000000; stroke-width:4; stroke-opacity:1; fill:none" points="
  184.243,1428.53 216.298,1428.53 
  "/>
<polyline clip-path="url(#clip2001)" style="stroke:#000000; stroke-width:4; stroke-opacity:1; fill:none" points="
  184.243,1160.01 216.298,1160.01 
  "/>
<polyline clip-path="url(#clip2001)" style="stroke:#000000; stroke-width:4; stroke-opacity:1; fill:none" points="
  184.243,891.501 216.298,891.501 
  "/>
<polyline clip-path="url(#clip2001)" style="stroke:#000000; stroke-width:4; stroke-opacity:1; fill:none" points="
  184.243,622.987 216.298,622.987 
  "/>
<polyline clip-path="url(#clip2001)" style="stroke:#000000; stroke-width:4; stroke-opacity:1; fill:none" points="
  184.243,354.473 216.298,354.473 
  "/>
<g clip-path="url(#clip2001)">
<text style="fill:#000000; fill-opacity:1; font-family:Arial,Helvetica Neue,Helvetica,sans-serif; font-size:48px; text-anchor:middle;" transform="rotate(0, 244.724, 1494.48)" x="244.724" y="1494.48">0.00</text>
</g>
<g clip-path="url(#clip2001)">
<text style="fill:#000000; fill-opacity:1; font-family:Arial,Helvetica Neue,Helvetica,sans-serif; font-size:48px; text-anchor:middle;" transform="rotate(0, 743.698, 1494.48)" x="743.698" y="1494.48">0.25</text>
</g>
<g clip-path="url(#clip2001)">
<text style="fill:#000000; fill-opacity:1; font-family:Arial,Helvetica Neue,Helvetica,sans-serif; font-size:48px; text-anchor:middle;" transform="rotate(0, 1242.67, 1494.48)" x="1242.67" y="1494.48">0.50</text>
</g>
<g clip-path="url(#clip2001)">
<text style="fill:#000000; fill-opacity:1; font-family:Arial,Helvetica Neue,Helvetica,sans-serif; font-size:48px; text-anchor:middle;" transform="rotate(0, 1741.64, 1494.48)" x="1741.64" y="1494.48">0.75</text>
</g>
<g clip-path="url(#clip2001)">
<text style="fill:#000000; fill-opacity:1; font-family:Arial,Helvetica Neue,Helvetica,sans-serif; font-size:48px; text-anchor:middle;" transform="rotate(0, 2240.62, 1494.48)" x="2240.62" y="1494.48">1.00</text>
</g>
<g clip-path="url(#clip2001)">
<text style="fill:#000000; fill-opacity:1; font-family:Arial,Helvetica Neue,Helvetica,sans-serif; font-size:48px; text-anchor:end;" transform="rotate(0, 160.243, 1446.03)" x="160.243" y="1446.03">0</text>
</g>
<g clip-path="url(#clip2001)">
<text style="fill:#000000; fill-opacity:1; font-family:Arial,Helvetica Neue,Helvetica,sans-serif; font-size:48px; text-anchor:end;" transform="rotate(0, 160.243, 1177.51)" x="160.243" y="1177.51">1</text>
</g>
<g clip-path="url(#clip2001)">
<text style="fill:#000000; fill-opacity:1; font-family:Arial,Helvetica Neue,Helvetica,sans-serif; font-size:48px; text-anchor:end;" transform="rotate(0, 160.243, 909.001)" x="160.243" y="909.001">2</text>
</g>
<g clip-path="url(#clip2001)">
<text style="fill:#000000; fill-opacity:1; font-family:Arial,Helvetica Neue,Helvetica,sans-serif; font-size:48px; text-anchor:end;" transform="rotate(0, 160.243, 640.487)" x="160.243" y="640.487">3</text>
</g>
<g clip-path="url(#clip2001)">
<text style="fill:#000000; fill-opacity:1; font-family:Arial,Helvetica Neue,Helvetica,sans-serif; font-size:48px; text-anchor:end;" transform="rotate(0, 160.243, 371.973)" x="160.243" y="371.973">4</text>
</g>
<g clip-path="url(#clip2001)">
<text style="fill:#000000; fill-opacity:1; font-family:Arial,Helvetica Neue,Helvetica,sans-serif; font-size:84px; text-anchor:middle;" transform="rotate(0, 1252.75, 73.2)" x="1252.75" y="73.2">Plot of Actual and Desired Joint Angles</text>
</g>
<g clip-path="url(#clip2001)">
<text style="fill:#000000; fill-opacity:1; font-family:Arial,Helvetica Neue,Helvetica,sans-serif; font-size:66px; text-anchor:middle;" transform="rotate(0, 1252.75, 1590.4)" x="1252.75" y="1590.4">Time</text>
</g>
<g clip-path="url(#clip2001)">
<text style="fill:#000000; fill-opacity:1; font-family:Arial,Helvetica Neue,Helvetica,sans-serif; font-size:66px; text-anchor:middle;" transform="rotate(-90, 57.6, 783.233)" x="57.6" y="783.233">Joint Angles</text>
</g>
<polyline clip-path="url(#clip2003)" style="stroke:#009af9; stroke-width:8; stroke-opacity:1; fill:none" stroke-dasharray="32, 20" points="
  244.724,1401.43 265.088,1401.23 285.453,1401.05 305.817,1400.87 326.181,1400.63 346.545,1400.31 366.909,1399.9 387.274,1399.36 407.638,1398.67 428.002,1397.82 
  448.366,1396.79 468.73,1395.57 489.094,1394.15 509.459,1392.52 529.823,1390.67 550.187,1388.59 570.551,1386.27 590.915,1383.72 611.28,1380.92 631.644,1377.88 
  652.008,1374.6 672.372,1371.06 692.736,1367.29 713.1,1363.27 733.465,1359.01 753.829,1354.52 774.193,1349.79 794.557,1344.85 814.921,1339.68 835.286,1334.31 
  855.65,1328.74 876.014,1322.98 896.378,1317.03 916.742,1310.92 937.106,1304.66 957.471,1298.24 977.835,1291.69 998.199,1285.01 1018.56,1278.22 1038.93,1271.32 
  1059.29,1264.32 1079.66,1257.23 1100.02,1250.05 1120.38,1242.8 1140.75,1235.48 1161.11,1228.1 1181.48,1220.67 1201.84,1213.19 1222.2,1205.69 1242.57,1198.16 
  1262.93,1190.62 1283.3,1183.09 1303.66,1175.58 1324.03,1168.11 1344.39,1160.68 1364.75,1153.31 1385.12,1146.03 1405.48,1138.84 1425.85,1131.76 1446.21,1124.8 
  1466.58,1117.98 1486.94,1111.32 1507.3,1104.81 1527.67,1098.48 1548.03,1092.34 1568.4,1086.39 1588.76,1080.65 1609.12,1075.11 1629.49,1069.79 1649.85,1064.7 
  1670.22,1059.83 1690.58,1055.18 1710.95,1050.77 1731.31,1046.59 1751.67,1042.65 1772.04,1038.94 1792.4,1035.46 1812.77,1032.21 1833.13,1029.2 1853.49,1026.41 
  1873.86,1023.84 1894.22,1021.5 1914.59,1019.38 1934.95,1017.47 1955.32,1015.77 1975.68,1014.27 1996.04,1012.97 2016.41,1011.85 2036.77,1010.91 2057.14,1010.15 
  2077.5,1009.54 2097.86,1009.08 2118.23,1008.75 2138.59,1008.53 2158.96,1008.42 2179.32,1008.4 2199.69,1008.44 2220.05,1008.52 2240.41,1008.62 2260.78,1008.72 
  
  "/>
<polyline clip-path="url(#clip2003)" style="stroke:#e26f46; stroke-width:8; stroke-opacity:1; fill:none" stroke-dasharray="4, 8" points="
  244.724,1401.68 265.088,1401.67 285.453,1401.65 305.817,1401.57 326.181,1401.43 346.545,1401.21 366.909,1400.88 387.274,1400.42 407.638,1399.84 428.002,1399.1 
  448.366,1398.2 468.73,1397.12 489.094,1395.86 509.459,1394.4 529.823,1392.74 550.187,1390.87 570.551,1388.79 590.915,1386.48 611.28,1383.94 631.644,1381.18 
  652.008,1378.19 672.372,1374.96 692.736,1371.5 713.1,1367.81 733.465,1363.89 753.829,1359.74 774.193,1355.36 794.557,1350.76 814.921,1345.95 835.286,1340.92 
  855.65,1335.68 876.014,1330.24 896.378,1324.61 916.742,1318.79 937.106,1312.79 957.471,1306.62 977.835,1300.29 998.199,1293.81 1018.56,1287.18 1038.93,1280.43 
  1059.29,1273.54 1079.66,1266.55 1100.02,1259.46 1120.38,1252.27 1140.75,1245.01 1161.11,1237.69 1181.48,1230.3 1201.84,1222.88 1222.2,1215.43 1242.57,1207.95 
  1262.93,1200.47 1283.3,1193 1303.66,1185.55 1324.03,1178.12 1344.39,1170.74 1364.75,1163.41 1385.12,1156.15 1405.48,1148.97 1425.85,1141.87 1446.21,1134.88 
  1466.58,1128 1486.94,1121.24 1507.3,1114.61 1527.67,1108.13 1548.03,1101.8 1568.4,1095.63 1588.76,1089.63 1609.12,1083.82 1629.49,1078.18 1649.85,1072.75 
  1670.22,1067.51 1690.58,1062.48 1710.95,1057.66 1731.31,1053.06 1751.67,1048.69 1772.04,1044.54 1792.4,1040.62 1812.77,1036.92 1833.13,1033.47 1853.49,1030.24 
  1873.86,1027.25 1894.22,1024.48 1914.59,1021.95 1934.95,1019.64 1955.32,1017.55 1975.68,1015.68 1996.04,1014.02 2016.41,1012.56 2036.77,1011.3 2057.14,1010.23 
  2077.5,1009.33 2097.86,1008.59 2118.23,1008 2138.59,1007.55 2158.96,1007.22 2179.32,1006.99 2199.69,1006.85 2220.05,1006.78 2240.41,1006.75 2260.78,1006.75 
  
  "/>
<polyline clip-path="url(#clip2003)" style="stroke:#3da44d; stroke-width:8; stroke-opacity:1; fill:none" stroke-dasharray="32, 20" points="
  244.724,1401.17 265.088,1400.72 285.453,1400.31 305.817,1399.88 326.181,1399.37 346.545,1398.72 366.909,1397.88 387.274,1396.81 407.638,1395.46 428.002,1393.79 
  448.366,1391.78 468.73,1389.39 489.094,1386.59 509.459,1383.38 529.823,1379.71 550.187,1375.6 570.551,1371.01 590.915,1365.95 611.28,1360.41 631.644,1354.39 
  652.008,1347.88 672.372,1340.91 692.736,1333.47 713.1,1325.57 733.465,1317.23 753.829,1308.47 774.193,1299.3 794.557,1289.74 814.921,1279.81 835.286,1269.54 
  855.65,1258.93 876.014,1248.01 896.378,1236.8 916.742,1225.31 937.106,1213.56 957.471,1201.56 977.835,1189.33 998.199,1176.86 1018.56,1164.17 1038.93,1151.27 
  1059.29,1138.16 1079.66,1124.85 1100.02,1111.35 1120.38,1097.65 1140.75,1083.78 1161.11,1069.73 1181.48,1055.51 1201.84,1041.15 1222.2,1026.64 1242.57,1012 
  1262.93,997.243 1283.3,982.388 1303.66,967.451 1324.03,952.453 1344.39,937.417 1364.75,922.365 1385.12,907.327 1405.48,892.33 1425.85,877.407 1446.21,862.59 
  1466.58,847.913 1486.94,833.412 1507.3,819.124 1527.67,805.084 1548.03,791.329 1568.4,777.895 1588.76,764.815 1609.12,752.124 1629.49,739.851 1649.85,728.026 
  1670.22,716.675 1690.58,705.82 1710.95,695.481 1731.31,685.676 1751.67,676.418 1772.04,667.717 1792.4,659.581 1812.77,652.012 1833.13,645.011 1853.49,638.577 
  1873.86,632.703 1894.22,627.381 1914.59,622.6 1934.95,618.346 1955.32,614.604 1975.68,611.354 1996.04,608.575 2016.41,606.244 2036.77,604.335 2057.14,602.82 
  2077.5,601.668 2097.86,600.847 2118.23,600.321 2138.59,600.055 2158.96,600.008 2179.32,600.139 2199.69,600.404 2220.05,600.755 2240.41,601.144 2260.78,601.52 
  
  "/>
<polyline clip-path="url(#clip2003)" style="stroke:#c271d2; stroke-width:8; stroke-opacity:1; fill:none" stroke-dasharray="4, 8" points="
  244.724,1401.68 265.088,1401.67 285.453,1401.61 305.817,1401.46 326.181,1401.17 346.545,1400.7 366.909,1400.02 387.274,1399.09 407.638,1397.87 428.002,1396.35 
  448.366,1394.48 468.73,1392.26 489.094,1389.65 509.459,1386.64 529.823,1383.2 550.187,1379.33 570.551,1375.02 590.915,1370.24 611.28,1365 631.644,1359.29 
  652.008,1353.1 672.372,1346.42 692.736,1339.27 713.1,1331.64 733.465,1323.53 753.829,1314.95 774.193,1305.89 794.557,1296.39 814.921,1286.43 835.286,1276.02 
  855.65,1265.19 876.014,1253.95 896.378,1242.3 916.742,1230.27 937.106,1217.86 957.471,1205.11 977.835,1192.02 998.199,1178.61 1018.56,1164.91 1038.93,1150.93 
  1059.29,1136.7 1079.66,1122.24 1100.02,1107.57 1120.38,1092.71 1140.75,1077.7 1161.11,1062.55 1181.48,1047.28 1201.84,1031.93 1222.2,1016.51 1242.57,1001.06 
  1262.93,985.589 1283.3,970.135 1303.66,954.718 1324.03,939.365 1344.39,924.099 1364.75,908.946 1385.12,893.93 1405.48,879.076 1425.85,864.406 1446.21,849.945 
  1466.58,835.715 1486.94,821.737 1507.3,808.035 1527.67,794.628 1548.03,781.537 1568.4,768.78 1588.76,756.376 1609.12,744.342 1629.49,732.695 1649.85,721.45 
  1670.22,710.62 1690.58,700.22 1710.95,690.259 1731.31,680.75 1751.67,671.7 1772.04,663.116 1792.4,655.006 1812.77,647.373 1833.13,640.22 1853.49,633.548 
  1873.86,627.356 1894.22,621.642 1914.59,616.401 1934.95,611.626 1955.32,607.31 1975.68,603.442 1996.04,600.009 2016.41,596.996 2036.77,594.386 2057.14,592.161 
  2077.5,590.297 2097.86,588.772 2118.23,587.557 2138.59,586.624 2158.96,585.942 2179.32,585.474 2199.69,585.185 2220.05,585.033 2240.41,584.976 2260.78,584.968 
  
  "/>
<polyline clip-path="url(#clip2003)" style="stroke:#ac8d18; stroke-width:8; stroke-opacity:1; fill:none" stroke-dasharray="32, 20" points="
  244.724,1401.25 265.088,1401.54 285.453,1402.19 305.817,1402.86 326.181,1403.28 346.545,1403.27 366.909,1402.72 387.274,1401.52 407.638,1399.63 428.002,1397 
  448.366,1393.6 468.73,1389.42 489.094,1384.43 509.459,1378.63 529.823,1372.02 550.187,1364.6 570.551,1356.35 590.915,1347.28 611.28,1337.39 631.644,1326.67 
  652.008,1315.12 672.372,1302.73 692.736,1289.49 713.1,1275.4 733.465,1260.44 753.829,1244.59 774.193,1227.86 794.557,1210.23 814.921,1191.68 835.286,1172.23 
  855.65,1151.87 876.014,1130.63 896.378,1108.52 916.742,1085.58 937.106,1061.88 957.471,1037.46 977.835,1012.42 998.199,986.85 1018.56,960.846 1038.93,934.519 
  1059.29,907.984 1079.66,881.354 1100.02,854.74 1120.38,828.245 1140.75,801.966 1161.11,775.987 1181.48,750.38 1201.84,725.206 1222.2,700.513 1242.57,676.338 
  1262.93,652.712 1283.3,629.654 1303.66,607.181 1324.03,585.302 1344.39,564.026 1364.75,543.357 1385.12,523.3 1405.48,503.857 1425.85,485.029 1446.21,466.817 
  1466.58,449.221 1486.94,432.24 1507.3,415.875 1527.67,400.123 1548.03,384.983 1568.4,370.454 1588.76,356.537 1609.12,343.23 1629.49,330.535 1649.85,318.453 
  1670.22,306.986 1690.58,296.136 1710.95,285.905 1731.31,276.296 1751.67,267.31 1772.04,258.949 1792.4,251.214 1812.77,244.103 1833.13,237.614 1853.49,231.744 
  1873.86,226.486 1894.22,221.833 1914.59,217.775 1934.95,214.299 1955.32,211.389 1975.68,209.027 1996.04,207.191 2016.41,205.856 2036.77,204.992 2057.14,204.568 
  2077.5,204.546 2097.86,204.886 2118.23,205.54 2138.59,206.46 2158.96,207.589 2179.32,208.869 2199.69,210.235 2220.05,211.616 2240.41,212.938 2260.78,214.121 
  
  "/>
<polyline clip-path="url(#clip2003)" style="stroke:#00a9ad; stroke-width:8; stroke-opacity:1; fill:none" stroke-dasharray="4, 8" points="
  244.724,1401.68 265.088,1401.66 285.453,1401.58 305.817,1401.35 326.181,1400.91 346.545,1400.2 366.909,1399.16 387.274,1397.75 407.638,1395.91 428.002,1393.59 
  448.366,1390.77 468.73,1387.39 489.094,1383.44 509.459,1378.87 529.823,1373.66 550.187,1367.8 570.551,1361.25 590.915,1354.01 611.28,1346.06 631.644,1337.4 
  652.008,1328.01 672.372,1317.89 692.736,1307.04 713.1,1295.47 733.465,1283.17 753.829,1270.15 774.193,1256.43 794.557,1242.01 814.921,1226.9 835.286,1211.13 
  855.65,1194.71 876.014,1177.66 896.378,1160 916.742,1141.75 937.106,1122.94 957.471,1103.59 977.835,1083.74 998.199,1063.41 1018.56,1042.63 1038.93,1021.43 
  1059.29,999.855 1079.66,977.926 1100.02,955.68 1120.38,933.154 1140.75,910.384 1161.11,887.405 1181.48,864.256 1201.84,840.973 1222.2,817.595 1242.57,794.159 
  1262.93,770.705 1283.3,747.269 1303.66,723.891 1324.03,700.608 1344.39,677.459 1364.75,654.481 1385.12,631.71 1405.48,609.184 1425.85,586.939 1446.21,565.009 
  1466.58,543.43 1486.94,522.234 1507.3,501.455 1527.67,481.124 1548.03,461.272 1568.4,441.927 1588.76,423.117 1609.12,404.869 1629.49,387.207 1649.85,370.154 
  1670.22,353.732 1690.58,337.96 1710.95,322.856 1731.31,308.435 1751.67,294.711 1772.04,281.695 1792.4,269.396 1812.77,257.821 1833.13,246.974 1853.49,236.856 
  1873.86,227.467 1894.22,218.801 1914.59,210.854 1934.95,203.613 1955.32,197.068 1975.68,191.202 1996.04,185.996 2016.41,181.427 2036.77,177.47 2057.14,174.095 
  2077.5,171.269 2097.86,168.956 2118.23,167.114 2138.59,165.699 2158.96,164.664 2179.32,163.955 2199.69,163.516 2220.05,163.286 2240.41,163.2 2260.78,163.187 
  
  "/>
<polygon clip-path="url(#clip2001)" points="
1680.22,632.864 2249.26,632.864 2249.26,209.504 1680.22,209.504 
  " fill="#ffffff" fill-rule="evenodd" fill-opacity="1"/>
<polyline clip-path="url(#clip2001)" style="stroke:#000000; stroke-width:4; stroke-opacity:1; fill:none" points="
  1680.22,632.864 2249.26,632.864 2249.26,209.504 1680.22,209.504 1680.22,632.864 
  "/>
<polyline clip-path="url(#clip2001)" style="stroke:#009af9; stroke-width:8; stroke-opacity:1; fill:none" stroke-dasharray="32, 20" points="
  1704.22,269.984 1848.22,269.984 
  "/>
<g clip-path="url(#clip2001)">
<text style="fill:#000000; fill-opacity:1; font-family:Arial,Helvetica Neue,Helvetica,sans-serif; font-size:48px; text-anchor:start;" transform="rotate(0, 1872.22, 287.484)" x="1872.22" y="287.484">ActualTheta 1</text>
</g>
<polyline clip-path="url(#clip2001)" style="stroke:#e26f46; stroke-width:8; stroke-opacity:1; fill:none" stroke-dasharray="4, 8" points="
  1704.22,330.464 1848.22,330.464 
  "/>
<g clip-path="url(#clip2001)">
<text style="fill:#000000; fill-opacity:1; font-family:Arial,Helvetica Neue,Helvetica,sans-serif; font-size:48px; text-anchor:start;" transform="rotate(0, 1872.22, 347.964)" x="1872.22" y="347.964">DesiredTheta 1</text>
</g>
<polyline clip-path="url(#clip2001)" style="stroke:#3da44d; stroke-width:8; stroke-opacity:1; fill:none" stroke-dasharray="32, 20" points="
  1704.22,390.944 1848.22,390.944 
  "/>
<g clip-path="url(#clip2001)">
<text style="fill:#000000; fill-opacity:1; font-family:Arial,Helvetica Neue,Helvetica,sans-serif; font-size:48px; text-anchor:start;" transform="rotate(0, 1872.22, 408.444)" x="1872.22" y="408.444">ActualTheta 2</text>
</g>
<polyline clip-path="url(#clip2001)" style="stroke:#c271d2; stroke-width:8; stroke-opacity:1; fill:none" stroke-dasharray="4, 8" points="
  1704.22,451.424 1848.22,451.424 
  "/>
<g clip-path="url(#clip2001)">
<text style="fill:#000000; fill-opacity:1; font-family:Arial,Helvetica Neue,Helvetica,sans-serif; font-size:48px; text-anchor:start;" transform="rotate(0, 1872.22, 468.924)" x="1872.22" y="468.924">DesiredTheta 2</text>
</g>
<polyline clip-path="url(#clip2001)" style="stroke:#ac8d18; stroke-width:8; stroke-opacity:1; fill:none" stroke-dasharray="32, 20" points="
  1704.22,511.904 1848.22,511.904 
  "/>
<g clip-path="url(#clip2001)">
<text style="fill:#000000; fill-opacity:1; font-family:Arial,Helvetica Neue,Helvetica,sans-serif; font-size:48px; text-anchor:start;" transform="rotate(0, 1872.22, 529.404)" x="1872.22" y="529.404">ActualTheta 3</text>
</g>
<polyline clip-path="url(#clip2001)" style="stroke:#00a9ad; stroke-width:8; stroke-opacity:1; fill:none" stroke-dasharray="4, 8" points="
  1704.22,572.384 1848.22,572.384 
  "/>
<g clip-path="url(#clip2001)">
<text style="fill:#000000; fill-opacity:1; font-family:Arial,Helvetica Neue,Helvetica,sans-serif; font-size:48px; text-anchor:start;" transform="rotate(0, 1872.22, 589.884)" x="1872.22" y="589.884">DesiredTheta 3</text>
</g>
</svg>
